<?xml version="1.0" encoding="UTF-8"?>
<!--Generator: Apple Native CoreSVG 341-->
<!DOCTYPE svg
PUBLIC "-//W3C//DTD SVG 1.1//EN"
       "http://www.w3.org/Graphics/SVG/1.1/DTD/svg11.dtd">
<svg version="1.1" xmlns="http://www.w3.org/2000/svg" xmlns:xlink="http://www.w3.org/1999/xlink" viewBox="0 0 3300 2200">
 <!--glyph: "", point size: 100.0, font version: "21.1d1e1", template writer version: "138.0.0"-->
 <style>.defaults {-sfsymbols-draw-reverses-motion-groups:true}

.monochrome-0 {-sfsymbols-motion-group:1;-sfsymbols-layer-tags:_enclosure.stroke aea248ab92b3619 viewfinder}
.monochrome-1 {-sfsymbols-motion-group:0;-sfsymbols-always-pulses:true;-sfsymbols-layer-tags:5f310bd0ea3b7fe2 aea248ab92b3619 figure.roll}

.multicolor-0:tintColor {-sfsymbols-motion-group:1;-sfsymbols-layer-tags:_enclosure.stroke aea248ab92b3619 viewfinder}
.multicolor-1:tintColor {-sfsymbols-motion-group:0;-sfsymbols-always-pulses:true;-sfsymbols-layer-tags:5f310bd0ea3b7fe2 aea248ab92b3619 figure.roll}

.hierarchical-0:secondary {-sfsymbols-motion-group:1;-sfsymbols-layer-tags:_enclosure.stroke aea248ab92b3619 viewfinder}
.hierarchical-1:primary {-sfsymbols-motion-group:0;-sfsymbols-always-pulses:true;-sfsymbols-layer-tags:5f310bd0ea3b7fe2 aea248ab92b3619 figure.roll}

.SFSymbolsPreviewWireframe {fill:none;opacity:1.0;stroke:black;stroke-width:0.5}
</style>
 <g id="Notes">
  <rect height="2200" id="artboard" style="fill:white;opacity:1" width="3300" x="0" y="0"/>
  <line style="fill:none;stroke:black;opacity:1;stroke-width:0.5;" x1="263" x2="3036" y1="292" y2="292"/>
  <text style="stroke:none;fill:black;font-family:sans-serif;font-size:13;font-weight:bold;" transform="matrix(1 0 0 1 263 322)">Weight/Scale Variations</text>
  <text style="stroke:none;fill:black;font-family:sans-serif;font-size:13;text-anchor:middle;" transform="matrix(1 0 0 1 559.711 322)">Ultralight</text>
  <text style="stroke:none;fill:black;font-family:sans-serif;font-size:13;text-anchor:middle;" transform="matrix(1 0 0 1 856.422 322)">Thin</text>
  <text style="stroke:none;fill:black;font-family:sans-serif;font-size:13;text-anchor:middle;" transform="matrix(1 0 0 1 1153.13 322)">Light</text>
  <text style="stroke:none;fill:black;font-family:sans-serif;font-size:13;text-anchor:middle;" transform="matrix(1 0 0 1 1449.84 322)">Regular</text>
  <text style="stroke:none;fill:black;font-family:sans-serif;font-size:13;text-anchor:middle;" transform="matrix(1 0 0 1 1746.56 322)">Medium</text>
  <text style="stroke:none;fill:black;font-family:sans-serif;font-size:13;text-anchor:middle;" transform="matrix(1 0 0 1 2043.27 322)">Semibold</text>
  <text style="stroke:none;fill:black;font-family:sans-serif;font-size:13;text-anchor:middle;" transform="matrix(1 0 0 1 2339.98 322)">Bold</text>
  <text style="stroke:none;fill:black;font-family:sans-serif;font-size:13;text-anchor:middle;" transform="matrix(1 0 0 1 2636.69 322)">Heavy</text>
  <text style="stroke:none;fill:black;font-family:sans-serif;font-size:13;text-anchor:middle;" transform="matrix(1 0 0 1 2933.4 322)">Black</text>
  <line style="fill:none;stroke:black;opacity:1;stroke-width:0.5;" x1="263" x2="3036" y1="1903" y2="1903"/>
  <g transform="matrix(0.2 0 0 0.2 263 1933)">
   <path d="m46.2402 4.15039c21.7773 0 39.4531-17.627 39.4531-39.4043s-17.6758-39.4043-39.4531-39.4043c-21.7285 0-39.4043 17.627-39.4043 39.4043s17.6758 39.4043 39.4043 39.4043Zm0-7.42188c-17.6758 0-31.9336-14.3066-31.9336-31.9824s14.2578-31.9824 31.9336-31.9824 31.9824 14.3066 31.9824 31.9824-14.3066 31.9824-31.9824 31.9824Zm3.61328-17.7734v-28.4668c0-2.24609-1.46484-3.75977-3.71094-3.75977-2.14844 0-3.61328 1.51367-3.61328 3.75977v28.4668c0 2.19727 1.46484 3.71094 3.61328 3.71094 2.24609 0 3.71094-1.51367 3.71094-3.71094Zm-17.8223-10.5957h28.418c2.19727 0 3.71094-1.46484 3.71094-3.61328 0-2.19727-1.51367-3.71094-3.71094-3.71094h-28.418c-2.24609 0-3.75977 1.51367-3.75977 3.71094 0 2.14844 1.51367 3.61328 3.75977 3.61328Z"/>
  </g>
  <g transform="matrix(0.2 0 0 0.2 281.506 1933)">
   <path d="m58.5449 14.5508c27.4902 0 49.8047-22.3145 49.8047-49.8047s-22.3145-49.8047-49.8047-49.8047-49.8047 22.3145-49.8047 49.8047 22.3145 49.8047 49.8047 49.8047Zm0-8.30078c-22.9492 0-41.5039-18.5547-41.5039-41.5039s18.5547-41.5039 41.5039-41.5039 41.5039 18.5547 41.5039 41.5039-18.5547 41.5039-41.5039 41.5039Zm4.05273-23.0957v-36.9141c0-2.49023-1.70898-4.19922-4.15039-4.19922-2.39258 0-4.05273 1.70898-4.05273 4.19922v36.9141c0 2.44141 1.66016 4.15039 4.05273 4.15039 2.44141 0 4.15039-1.66016 4.15039-4.15039Zm-22.5586-14.4043h36.9629c2.44141 0 4.15039-1.61133 4.15039-4.00391 0-2.44141-1.70898-4.15039-4.15039-4.15039h-36.9629c-2.49023 0-4.15039 1.70898-4.15039 4.15039 0 2.39258 1.66016 4.00391 4.15039 4.00391Z"/>
  </g>
  <g transform="matrix(0.2 0 0 0.2 304.924 1933)">
   <path d="m74.8535 28.3203c35.1074 0 63.623-28.4668 63.623-63.5742s-28.5156-63.623-63.623-63.623-63.5742 28.5156-63.5742 63.623 28.4668 63.5742 63.5742 63.5742Zm0-9.08203c-30.127 0-54.4922-24.3652-54.4922-54.4922s24.3652-54.4922 54.4922-54.4922 54.4922 24.3652 54.4922 54.4922-24.3652 54.4922-54.4922 54.4922Zm4.44336-30.3223v-48.4863c0-2.73438-1.85547-4.63867-4.54102-4.63867-2.58789 0-4.44336 1.9043-4.44336 4.63867v48.4863c0 2.68555 1.85547 4.58984 4.44336 4.58984 2.68555 0 4.54102-1.85547 4.54102-4.58984Zm-28.7109-19.7754h48.4863c2.68555 0 4.58984-1.80664 4.58984-4.39453 0-2.73438-1.85547-4.58984-4.58984-4.58984h-48.4863c-2.73438 0-4.58984 1.85547-4.58984 4.58984 0 2.58789 1.85547 4.39453 4.58984 4.39453Z"/>
  </g>
  <text style="stroke:none;fill:black;font-family:sans-serif;font-size:13;font-weight:bold;" transform="matrix(1 0 0 1 263 1953)">Design Variations</text>
  <text style="stroke:none;fill:black;font-family:sans-serif;font-size:13;" transform="matrix(1 0 0 1 263 1971)">Symbols are supported in up to nine weights and three scales.</text>
  <text style="stroke:none;fill:black;font-family:sans-serif;font-size:13;" transform="matrix(1 0 0 1 263 1989)">For optimal layout with text and other symbols, vertically align</text>
  <text style="stroke:none;fill:black;font-family:sans-serif;font-size:13;" transform="matrix(1 0 0 1 263 2007)">symbols with the adjacent text.</text>
  <line style="fill:none;stroke:#00AEEF;stroke-width:0.5;opacity:1.0;" x1="776" x2="776" y1="1919" y2="1933"/>
  <g transform="matrix(0.2 0 0 0.2 776 1933)">
   <path d="m16.5527 0.78125c2.58789 0 3.85742-0.976562 4.78516-3.71094l20.5566-57.5195h0.244141l20.6055 57.5195c0.927734 2.73438 2.19727 3.71094 4.73633 3.71094 2.58789 0 4.24805-1.5625 4.24805-4.00391 0-0.830078-0.146484-1.61133-0.537109-2.63672l-22.9004-60.9863c-1.12305-2.97852-3.125-4.49219-6.25-4.49219-3.02734 0-5.07812 1.46484-6.15234 4.44336l-22.9004 61.084c-0.390625 1.02539-0.537109 1.80664-0.537109 2.63672 0 2.44141 1.5625 3.95508 4.10156 3.95508Zm10.2051-20.9473h30.6641c2.00195 0 3.66211-1.66016 3.66211-3.66211 0-2.05078-1.66016-3.66211-3.66211-3.66211h-30.6641c-2.00195 0-3.66211 1.61133-3.66211 3.66211 0 2.00195 1.66016 3.66211 3.66211 3.66211Z"/>
  </g>
  <line style="fill:none;stroke:#00AEEF;stroke-width:0.5;opacity:1.0;" x1="792.836" x2="792.836" y1="1919" y2="1933"/>
  <text style="stroke:none;fill:black;font-family:sans-serif;font-size:13;font-weight:bold;" transform="matrix(1 0 0 1 776 1953)">Margins</text>
  <text style="stroke:none;fill:black;font-family:sans-serif;font-size:13;" transform="matrix(1 0 0 1 776 1971)">Leading and trailing margins on the left and right side of each symbol</text>
  <text style="stroke:none;fill:black;font-family:sans-serif;font-size:13;" transform="matrix(1 0 0 1 776 1989)">can be adjusted by modifying the x-location of the margin guidelines.</text>
  <text style="stroke:none;fill:black;font-family:sans-serif;font-size:13;" transform="matrix(1 0 0 1 776 2007)">Modifications are automatically applied proportionally to all</text>
  <text style="stroke:none;fill:black;font-family:sans-serif;font-size:13;" transform="matrix(1 0 0 1 776 2025)">scales and weights.</text>
  <g transform="matrix(0.2 0 0 0.2 1289 1933)">
   <path d="m14.209 13.1348 7.86133 7.86133c4.29688 4.39453 9.32617 4.10156 13.8672-1.02539l60.6934-68.2129-4.88281-4.88281-60.2539 67.6758c-1.80664 1.95312-3.4668 2.44141-5.81055 0.0976562l-5.17578-5.12695c-2.29492-2.29492-1.80664-3.95508 0.195312-5.81055l67.4805-62.1582-4.88281-4.83398-68.0664 62.5977c-4.98047 4.58984-5.32227 9.47266-1.02539 13.8184Zm44.873-97.4609c-2.05078 2.00195-2.24609 4.88281-1.07422 6.78711 1.12305 1.80664 3.4668 3.02734 6.5918 2.24609 5.85938-1.66016 12.5977-2.39258 18.8965 0.927734l-2.68555 7.12891c-1.61133 4.00391-0.732422 6.88477 1.70898 9.42383l10.2539 10.3027c2.34375 2.39258 4.54102 2.44141 7.08008 1.95312l4.44336-0.732422 2.58789 2.53906-0.195312 2.24609c-0.0976562 2.29492 0.537109 4.29688 2.7832 6.49414l3.36914 3.32031c2.29492 2.29492 5.51758 2.49023 7.8125 0.195312l12.9883-13.0371c2.29492-2.34375 2.14844-5.37109-0.195312-7.66602l-3.41797-3.41797c-2.19727-2.19727-4.05273-3.02734-6.34766-2.88086l-2.34375 0.244141-2.44141-2.44141 1.02539-4.6875c0.634766-2.73438-0.244141-4.98047-2.88086-7.61719l-11.2793-11.1816c-12.9395-12.8418-35.5957-11.0352-46.6797-0.146484Zm7.08008 2.05078c8.78906-6.39648 25.9766-5.66406 33.6914 1.95312l12.3047 12.207c1.02539 1.02539 1.2207 1.80664 0.927734 3.32031l-1.46484 6.64062 6.73828 6.68945 4.39453-0.244141c1.12305-0.0488281 1.51367 0.0488281 2.34375 0.878906l2.53906 2.49023-10.8398 10.8398-2.49023-2.49023c-0.830078-0.878906-0.976562-1.2207-0.927734-2.39258l0.292969-4.3457-6.68945-6.73828-6.83594 1.17188c-1.41602 0.292969-2.05078 0.195312-3.17383-0.878906l-8.93555-8.88672c-1.07422-1.02539-1.17188-1.70898-0.488281-3.36914l4.58984-11.4746c-6.10352-6.34766-17.041-7.51953-25.5859-4.58984-0.683594 0.244141-0.927734-0.390625-0.390625-0.78125Z"/>
  </g>
  <text style="stroke:none;fill:black;font-family:sans-serif;font-size:13;font-weight:bold;" transform="matrix(1 0 0 1 1289 1953)">Exporting</text>
  <text style="stroke:none;fill:black;font-family:sans-serif;font-size:13;" transform="matrix(1 0 0 1 1289 1971)">Symbols should be outlined when exporting to ensure the</text>
  <text style="stroke:none;fill:black;font-family:sans-serif;font-size:13;" transform="matrix(1 0 0 1 1289 1989)">design is preserved when submitting to Xcode.</text>
  <text id="template-version" style="stroke:none;fill:black;font-family:sans-serif;font-size:13;text-anchor:end;" transform="matrix(1 0 0 1 3036 1933)">Template v.7.0</text>
  <text style="stroke:none;fill:black;font-family:sans-serif;font-size:13;text-anchor:end;" transform="matrix(1 0 0 1 3036 1951)">Requires Xcode 26 or greater</text>
  <text id="descriptive-name" style="stroke:none;fill:black;font-family:sans-serif;font-size:13;text-anchor:end;" transform="matrix(1 0 0 1 3036 1969)">Generated from viewfinder</text>
  <text style="stroke:none;fill:black;font-family:sans-serif;font-size:13;text-anchor:end;" transform="matrix(1 0 0 1 3036 1987)">Typeset at 100.0 points</text>
  <text style="stroke:none;fill:black;font-family:sans-serif;font-size:13;" transform="matrix(1 0 0 1 263 726)">Small</text>
  <text style="stroke:none;fill:black;font-family:sans-serif;font-size:13;" transform="matrix(1 0 0 1 263 1156)">Medium</text>
  <text style="stroke:none;fill:black;font-family:sans-serif;font-size:13;" transform="matrix(1 0 0 1 263 1586)">Large</text>
 </g>
 <g id="Guides">
  <g id="H-reference" style="fill:#27AAE1;stroke:none;" transform="matrix(1 0 0 1 339 696)">
   <path d="M0.993654 0L3.63775 0L29.3281-67.1323L30.0303-67.1323L30.0303-70.459L28.1226-70.459ZM11.6885-24.4799L46.9815-24.4799L46.2315-26.7285L12.4385-26.7285ZM55.1196 0L57.7637 0L30.6382-70.459L29.4326-70.459L29.4326-67.1323Z"/>
  </g>
  <line id="Baseline-S" style="fill:none;stroke:#27AAE1;opacity:1;stroke-width:0.5;" x1="263" x2="3036" y1="696" y2="696"/>
  <line id="Capline-S" style="fill:none;stroke:#27AAE1;opacity:1;stroke-width:0.5;" x1="263" x2="3036" y1="625.541" y2="625.541"/>
  <g id="H-reference" style="fill:#27AAE1;stroke:none;" transform="matrix(1 0 0 1 339 1126)">
   <path d="M0.993654 0L3.63775 0L29.3281-67.1323L30.0303-67.1323L30.0303-70.459L28.1226-70.459ZM11.6885-24.4799L46.9815-24.4799L46.2315-26.7285L12.4385-26.7285ZM55.1196 0L57.7637 0L30.6382-70.459L29.4326-70.459L29.4326-67.1323Z"/>
  </g>
  <line id="Baseline-M" style="fill:none;stroke:#27AAE1;opacity:1;stroke-width:0.5;" x1="263" x2="3036" y1="1126" y2="1126"/>
  <line id="Capline-M" style="fill:none;stroke:#27AAE1;opacity:1;stroke-width:0.5;" x1="263" x2="3036" y1="1055.54" y2="1055.54"/>
  <g id="H-reference" style="fill:#27AAE1;stroke:none;" transform="matrix(1 0 0 1 339 1556)">
   <path d="M0.993654 0L3.63775 0L29.3281-67.1323L30.0303-67.1323L30.0303-70.459L28.1226-70.459ZM11.6885-24.4799L46.9815-24.4799L46.2315-26.7285L12.4385-26.7285ZM55.1196 0L57.7637 0L30.6382-70.459L29.4326-70.459L29.4326-67.1323Z"/>
  </g>
  <line id="Baseline-L" style="fill:none;stroke:#27AAE1;opacity:1;stroke-width:0.5;" x1="263" x2="3036" y1="1556" y2="1556"/>
  <line id="Capline-L" style="fill:none;stroke:#27AAE1;opacity:1;stroke-width:0.5;" x1="263" x2="3036" y1="1485.54" y2="1485.54"/>
  <line id="right-margin-Black-S" style="fill:none;stroke:#00AEEF;stroke-width:0.5;opacity:1.0;" x1="2983.25" x2="2983.25" y1="600.785" y2="720.121"/>
  <line id="left-margin-Black-S" style="fill:none;stroke:#00AEEF;stroke-width:0.5;opacity:1.0;" x1="2883.55" x2="2883.55" y1="600.785" y2="720.121"/>
  <line id="right-margin-Regular-S" style="fill:none;stroke:#00AEEF;stroke-width:0.5;opacity:1.0;" x1="1497.57" x2="1497.57" y1="600.785" y2="720.121"/>
  <line id="left-margin-Regular-S" style="fill:none;stroke:#00AEEF;stroke-width:0.5;opacity:1.0;" x1="1402.11" x2="1402.11" y1="600.785" y2="720.121"/>
  <line id="right-margin-Ultralight-S" style="fill:none;stroke:#00AEEF;stroke-width:0.5;opacity:1.0;" x1="604.58" x2="604.58" y1="600.785" y2="720.121"/>
  <line id="left-margin-Ultralight-S" style="fill:none;stroke:#00AEEF;stroke-width:0.5;opacity:1.0;" x1="514.842" x2="514.842" y1="600.785" y2="720.121"/>
 </g>
 <g id="Symbols">
  <g id="Black-S" transform="matrix(1 0 0 1 2883.55 696)">
   <path class="monochrome-0 multicolor-0:tintColor hierarchical-0:secondary SFSymbolsPreviewWireframe" d="M9.76562-50.9766C9.76562-47.3145 12.6953-44.3848 16.3574-44.3848C20.0195-44.3848 22.9492-47.3145 22.9492-50.9766L22.9492-58.1055C22.9492-60.7422 24.2676-62.1094 26.9531-62.1094L34.2773-62.1094C37.9883-62.1094 40.8691-64.9902 40.8691-68.7012C40.8691-72.4121 37.9883-75.293 34.2773-75.293L26.9531-75.293C16.5527-75.293 9.76562-68.457 9.76562-58.1055ZM89.9414-50.9766L89.9414-58.1055C89.9414-68.457 83.1543-75.293 72.7539-75.293L65.4297-75.293C61.7188-75.293 58.8379-72.4121 58.8379-68.7012C58.8379-64.9902 61.7188-62.1094 65.4297-62.1094L72.7539-62.1094C75.4395-62.1094 76.7578-60.7422 76.7578-58.1055L76.7578-50.9766C76.7578-47.3145 79.6875-44.3848 83.3496-44.3848C87.0117-44.3848 89.9414-47.3145 89.9414-50.9766ZM9.76562-19.3848L9.76562-12.2559C9.76562-1.9043 16.5527 4.93164 26.9531 4.93164L34.2773 4.93164C37.9883 4.93164 40.8691 2.05078 40.8691-1.66016C40.8691-5.37109 37.9883-8.25195 34.2773-8.25195L26.9531-8.25195C24.2676-8.25195 22.9492-9.61914 22.9492-12.2559L22.9492-19.3848C22.9492-23.0469 20.0195-25.9766 16.3574-25.9766C12.6953-25.9766 9.76562-23.0469 9.76562-19.3848ZM89.9414-19.3848C89.9414-23.0469 87.0117-25.9766 83.3496-25.9766C79.6875-25.9766 76.7578-23.0469 76.7578-19.3848L76.7578-12.2559C76.7578-9.61914 75.4395-8.25195 72.7539-8.25195L65.4297-8.25195C61.7188-8.25195 58.8379-5.37109 58.8379-1.66016C58.8379 2.05078 61.7188 4.93164 65.4297 4.93164L72.7539 4.93164C83.1543 4.93164 89.9414-1.9043 89.9414-12.2559Z"/>
   <path class="monochrome-1 multicolor-1:tintColor hierarchical-1:primary SFSymbolsPreviewWireframe" d="M57.2351-48.3048C60.0169-48.3048 62.2954-50.5833 62.2954-53.365C62.2954-56.1423 60.0169-58.4222 57.2351-58.4222C54.4579-58.4222 52.1779-56.1423 52.1779-53.365C52.1779-50.5833 54.4579-48.3048 57.2351-48.3048ZM48.5646-12.1355C58.1757-12.1355 64.6932-18.4795 64.6932-27.3081C64.6932-32.2428 62.2953-34.9461 58.0423-34.9461L55.2903-34.9461C54.9207-34.9461 54.7359-35.1996 54.8778-35.5921L56.7893-41.3403C57.7456-44.2231 56.3119-46.6119 53.3435-47.3579L44.8477-49.4876C44.0544-49.6859 43.4016-49.5883 42.5445-49.1109L34.2684-44.4549C33.1491-43.819 32.8989-42.3744 33.6843-41.3084C34.3889-40.2988 35.562-40.073 36.7774-40.7044L44.323-44.6877L48.6664-43.4963C49.4432-43.2765 49.6967-42.8337 49.4311-42.1104L47.1306-35.5978C46.0064-32.3961 47.7669-29.6474 51.0065-29.6474L56.8237-29.6474C58.3692-29.6474 59.3383-28.7455 59.3383-27.3081C59.3383-21.7527 54.872-17.4904 48.5631-17.4904C41.6772-17.4904 37.2459-22.2733 37.2459-28.5184C37.2459-30.1031 37.5028-31.5991 38.126-32.9393C39.5515-36.0213 34.756-38.5857 33.0641-34.6423C32.2685-32.6986 31.8865-30.6338 31.8865-28.5184C31.8865-18.9712 38.3811-12.1355 48.5646-12.1355ZM64.9647-12.1355C66.4683-12.1355 67.6319-13.2992 67.6319-14.7997C67.6319-16.3003 66.4683-17.4654 64.9647-17.4654C63.4626-17.4654 62.299-16.3003 62.299-14.7997C62.299-13.2992 63.4626-12.1355 64.9647-12.1355Z"/>
  </g>
  <g id="Regular-S" transform="matrix(1 0 0 1 1402.11 696)">
   <path class="monochrome-0 multicolor-0:tintColor hierarchical-0:secondary SFSymbolsPreviewWireframe" d="M9.76562-51.8066C9.76562-49.9023 11.377-48.291 13.2812-48.291C15.2344-48.291 16.7969-49.9023 16.7969-51.8066L16.7969-58.9844C16.7969-63.3789 19.5312-66.1133 23.9746-66.1133L31.2988-66.1133C33.2031-66.1133 34.8145-67.7246 34.8145-69.6289C34.8145-71.582 33.2031-73.1934 31.2988-73.1934L23.9746-73.1934C15.1855-73.1934 9.76562-67.6758 9.76562-58.9844ZM85.6934-51.8066L85.6934-58.9844C85.6934-67.6758 80.2734-73.1934 71.5332-73.1934L64.1602-73.1934C62.2559-73.1934 60.6445-71.582 60.6445-69.6289C60.6445-67.7246 62.2559-66.1133 64.1602-66.1133L71.5332-66.1133C75.9766-66.1133 78.6621-63.3789 78.6621-58.9844L78.6621-51.8066C78.6621-49.9023 80.2734-48.291 82.1777-48.291C84.082-48.291 85.6934-49.9023 85.6934-51.8066ZM9.76562-18.5547L9.76562-11.4258C9.76562-2.68555 15.1855 2.7832 23.9746 2.7832L31.2988 2.7832C33.2031 2.7832 34.8145 1.17188 34.8145-0.732422C34.8145-2.68555 33.2031-4.29688 31.2988-4.29688L23.9746-4.29688C19.5312-4.29688 16.7969-7.03125 16.7969-11.4258L16.7969-18.5547C16.7969-20.5078 15.2344-22.1191 13.2812-22.1191C11.377-22.1191 9.76562-20.5078 9.76562-18.5547ZM85.6934-18.5547C85.6934-20.5078 84.082-22.1191 82.1777-22.1191C80.2734-22.1191 78.6621-20.5078 78.6621-18.5547L78.6621-11.4258C78.6621-7.03125 75.9766-4.29688 71.5332-4.29688L64.1602-4.29688C62.2559-4.29688 60.6445-2.68555 60.6445-0.732422C60.6445 1.17188 62.2559 2.7832 64.1602 2.7832L71.5332 2.7832C80.2734 2.7832 85.6934-2.68555 85.6934-11.4258Z"/>
   <path class="monochrome-1 multicolor-1:tintColor hierarchical-1:primary SFSymbolsPreviewWireframe" d="M54.6298-48.0531C57.1613-48.0531 59.2258-50.1176 59.2258-52.649C59.2258-55.1928 57.1613-57.2433 54.6298-57.2433C52.0861-57.2433 50.0355-55.1928 50.0355-52.649C50.0355-50.1176 52.0861-48.0531 54.6298-48.0531ZM46.8645-13.1408C55.793-13.1408 61.8055-19.0806 61.8055-27.666C61.8055-32.3041 59.5797-34.9585 55.4805-34.9585L52.8361-34.9585C52.4274-34.9585 52.1936-35.219 52.3523-35.6954L54.1757-41.2283C55.0453-43.8705 53.7781-46.1797 50.9271-46.9047L42.7375-48.9617C41.9498-49.1586 41.3347-49.0315 40.5783-48.6045L32.6084-44.1261C31.5982-43.5461 31.3802-42.1589 32.0789-41.2146C32.7444-40.279 33.891-40.0855 34.9539-40.6483L42.2478-44.5044L46.4667-43.3661C47.2603-43.1464 47.5502-42.635 47.2832-41.9075L45.0554-35.6284C43.9871-32.5944 45.7351-30.022 48.6977-30.022L55.2129-30.022C56.7109-30.022 57.7275-29.1342 57.7275-27.666C57.7275-21.5412 53.3341-17.2188 46.8784-17.2188C40.1956-17.2188 35.7882-21.7595 35.7882-28.1877C35.7882-30.2374 36.3266-32.0766 37.2901-33.6352C38.6922-36.0541 35.1668-38.1673 33.5933-35.2813C32.414-33.2268 31.7224-30.8187 31.7224-28.1877C31.7224-19.2868 37.6967-13.1408 46.8645-13.1408ZM61.8991-13.1408C63.2264-13.1408 64.2683-14.1827 64.2683-15.5085C64.2683-16.8342 63.2264-17.8622 61.8991-17.8622C60.5873-17.8622 59.5453-16.8342 59.5453-15.5085C59.5453-14.1827 60.5873-13.1408 61.8991-13.1408Z"/>
  </g>
  <g id="Ultralight-S" transform="matrix(1 0 0 1 514.842 696)">
   <path class="monochrome-0 multicolor-0:tintColor hierarchical-0:secondary SFSymbolsPreviewWireframe" d="M9.76562-49.6724C9.76562-49.085 10.2417-48.5635 10.8745-48.5635C11.4654-48.5635 11.9834-49.085 11.9834-49.6724L11.9834-57.3042C11.9834-64.1963 15.8076-68.0659 22.7031-68.0659L30.3906-68.0659C30.978-68.0659 31.4541-68.542 31.4541-69.1748C31.4541-69.7656 30.978-70.2871 30.3906-70.2871L22.7031-70.2871C14.4136-70.2871 9.76562-65.5869 9.76562-57.3042ZM79.9717-49.6724L79.9717-57.3042C79.9717-65.5869 75.3692-70.2871 67.0376-70.2871L59.3921-70.2871C58.7593-70.2871 58.2832-69.7656 58.2832-69.1748C58.2832-68.542 58.7593-68.0659 59.3921-68.0659L67.0376-68.0659C73.9331-68.0659 77.7993-64.1963 77.7993-57.3042L77.7993-49.6724C77.7993-49.085 78.2754-48.5635 78.8628-48.5635C79.4956-48.5635 79.9717-49.085 79.9717-49.6724ZM9.76562-20.6435L9.76562-13.0151C9.76562-4.72899 14.4136-0.0322044 22.7031-0.0322044L30.3906-0.0322044C30.978-0.0322044 31.4541-0.553697 31.4541-1.14111C31.4541-1.77735 30.978-2.25343 30.3906-2.25343L22.7031-2.25343C15.8076-2.25343 11.9834-6.12305 11.9834-13.0151L11.9834-20.6435C11.9834-21.2344 11.4654-21.7559 10.8745-21.7559C10.2417-21.7559 9.76562-21.2344 9.76562-20.6435ZM79.9717-20.6435C79.9717-21.2344 79.4956-21.7559 78.8628-21.7559C78.2754-21.7559 77.7993-21.2344 77.7993-20.6435L77.7993-13.0151C77.7993-6.12305 73.9331-2.25343 67.0376-2.25343L59.3921-2.25343C58.7593-2.25343 58.2832-1.77735 58.2832-1.14111C58.2832-0.553697 58.7593-0.0322044 59.3921-0.0322044L67.0376-0.0322044C75.3692-0.0322044 79.9717-4.72899 79.9717-13.0151Z"/>
   <path class="monochrome-1 multicolor-1:tintColor hierarchical-1:primary SFSymbolsPreviewWireframe" d="M51.1958-47.6911C53.3813-47.6911 55.1561-49.4659 55.1561-51.6513C55.1561-53.8612 53.3813-55.6259 51.1958-55.6259C48.9859-55.6259 47.2212-53.8612 47.2212-51.6513C47.2212-49.4659 48.9859-47.6911 51.1958-47.6911ZM44.2496-14.7528C52.3847-14.7528 57.8372-20.2054 57.8372-28.3448C57.8372-32.6487 55.7808-35.1027 52.0028-35.1027L49.5112-35.1027C49.0142-35.1027 48.7601-35.4431 48.931-35.9803L50.6456-41.2075C51.4225-43.6157 50.2606-45.7323 47.6746-46.3971L39.9314-48.3415C39.2077-48.5224 38.6649-48.4191 37.9813-48.0285L30.458-43.7836C29.6166-43.304 29.4069-42.0332 30.0128-41.2219C30.59-40.4149 31.6124-40.2296 32.5501-40.7279L39.4819-44.3869L43.536-43.3171C44.3416-43.0974 44.6878-42.5215 44.4048-41.7459L42.2895-35.8007C41.3217-33.0681 42.9256-30.713 45.598-30.713L52.9027-30.713C54.3963-30.713 55.4174-29.8053 55.4174-28.3448C55.4174-21.6436 50.9565-17.1727 44.2597-17.1727C37.5584-17.1727 33.0631-21.6436 33.0631-28.3692C33.0631-30.3345 33.5797-32.1363 34.4738-33.6725C35.4237-35.3422 33.2962-36.4237 32.3639-34.8422C31.2976-32.9628 30.6677-30.7721 30.6677-28.3692C30.6677-20.2054 36.0858-14.7528 44.2496-14.7528ZM58.0575-14.7528C59.1674-14.7528 60.0764-15.6618 60.0764-16.7862C60.0764-17.9105 59.1674-18.8094 58.0575-18.8094C56.9432-18.8094 56.0342-17.9105 56.0342-16.7862C56.0342-15.6618 56.9432-14.7528 58.0575-14.7528Z"/>
  </g>
 </g>
</svg>
